<svg width="29" height="46" viewBox="0 0 29 46" fill="none" xmlns="http://www.w3.org/2000/svg">
<rect x="14.3368" y="10" width="6" height="6" transform="rotate(46.2857 14.3368 10)" fill="#C8EFC6"/>
<rect x="12.3368" y="15" width="6" height="6" transform="rotate(46.2857 12.3368 15)" fill="#F0D28B"/>
<rect x="16.3368" y="15" width="6" height="6" transform="rotate(46.2857 16.3368 15)" fill="#F0D28B"/>
<rect x="8.33678" y="19" width="6" height="6" transform="rotate(46.2857 8.33678 19)" fill="#F0D28B"/>
<rect x="20.3368" y="19" width="6" height="6" transform="rotate(46.2857 20.3368 19)" fill="#F0D28B"/>
<rect x="14.3368" y="20" width="6" height="6" transform="rotate(46.2857 14.3368 20)" fill="#F0D28B"/>
<rect x="18.3368" y="24" width="6" height="6" transform="rotate(46.2857 18.3368 24)" fill="#F0D28B"/>
<rect x="14.3368" y="28" width="6" height="6" transform="rotate(46.2857 14.3368 28)" fill="#F0D28B"/>
<rect x="10.3368" y="24" width="6" height="6" transform="rotate(46.2857 10.3368 24)" fill="#F0D28B"/>
<rect x="5.33678" y="24" width="6" height="6" transform="rotate(46.2857 5.33678 24)" fill="#F0D28B"/>
<rect x="10.3368" y="27" width="6" height="6" transform="rotate(46.2857 10.3368 27)" fill="#F0D28B"/>
<rect x="18.3368" y="27" width="6" height="6" transform="rotate(46.2857 18.3368 27)" fill="#F0D28B"/>
<rect x="23.3368" y="24" width="6" height="6" transform="rotate(46.2857 23.3368 24)" fill="#F0D28B"/>
<rect x="11.3368" y="32" width="6" height="6" transform="rotate(46.2857 11.3368 32)" fill="#F0D28B"/>
<rect x="6.33678" y="30" width="6" height="6" transform="rotate(46.2857 6.33678 30)" fill="#F0D28B"/>
<rect x="8.33678" y="35" width="6" height="6" transform="rotate(46.2857 8.33678 35)" fill="#F0D28B"/>
<rect x="19.3368" y="34" width="6" height="6" transform="rotate(46.2857 19.3368 34)" fill="#F0D28B"/>
<rect x="22.3368" y="29" width="6" height="6" transform="rotate(46.2857 22.3368 29)" fill="#F0D28B"/>
<rect x="17.3368" y="32" width="6" height="6" transform="rotate(46.2857 17.3368 32)" fill="#F0D28B"/>
<rect x="14.3368" y="37" width="6" height="6" transform="rotate(46.2857 14.3368 37)" fill="#F0D28B"/>
<rect x="16.3368" y="5" width="6" height="6" transform="rotate(46.2857 16.3368 5)" fill="#A4EFA1"/>
<rect x="16.3368" y="2" width="6" height="6" transform="rotate(46.2857 16.3368 2)" fill="#74C172"/>
<rect x="11.3368" y="1" width="6" height="6" transform="rotate(46.2857 11.3368 1)" fill="#4C9B4A"/>
<rect x="11.3368" y="5" width="6" height="6" transform="rotate(46.2857 11.3368 5)" fill="#CFEDCE"/>
</svg>
